<svg width="16" height="708" viewBox="0 0 16 708" fill="none" xmlns="http://www.w3.org/2000/svg">
<path d="M15.5 92.5C15.5 96.6421 12.1421 100 8 100C3.85786 100 0.5 96.6421 0.5 92.5C0.5 88.3579 3.85786 85 8 85C12.1421 85 15.5 88.3579 15.5 92.5Z" fill="white"/>
<path d="M15.5 256.5C15.5 260.642 12.1421 264 8 264C3.85786 264 0.5 260.642 0.5 256.5C0.5 252.358 3.85786 249 8 249C12.1421 249 15.5 252.358 15.5 256.5Z" fill="white"/>
<path d="M15.5 420.5C15.5 424.642 12.1421 428 8 428C3.85786 428 0.5 424.642 0.5 420.5C0.5 416.358 3.85786 413 8 413C12.1421 413 15.5 416.358 15.5 420.5Z" fill="white"/>
<path d="M8.00003 2L8 706" stroke="white" stroke-width="3" stroke-linecap="round"/>
</svg>
